# xmcd
#
# Track frame offsets: 
#        150
#        20635
#        34085
#        58735
#        72575
#        87880
#        102005
#        120175
#        138415
#        156502
#
# Disc length: 2345 seconds
#
# Revision: 3
# Processed by: cddbd v1.5.2PL0 Copyright (c) Steve Scherf et al.
# Submitted via: ExactAudioCopy v0.99pb4
#
DISCID=8409270a
DTITLE=Monti Amundson - The Obvious Rock
DYEAR=1994
DGENRE=Bluesrock
TTITLE0=The Obvious Rock
TTITLE1=Lonely
TTITLE2=Win For Losin'
TTITLE3=When It Comes To Love
TTITLE4=Miss Ann
TTITLE5=Trouble Boys
TTITLE6=Drive All Night
TTITLE7=Route 66
TTITLE8=My Baby, She Left Me
TTITLE9=King's New Clothes
EXTD=
EXTT0=M. Admundson
EXTT1=M. Amundson
EXTT2=M. Amundson
EXTT3=M. Amundson
EXTT4=R. Penniman, E. Johnson
EXTT5=B. Murray
EXTT6=M. Amundson
EXTT7=B Troup
EXTT8=E. Johns
EXTT9=M. Amundson
PLAYORDER=
